<svg width="20" height="20" viewBox="0 0 20 20" fill="none" xmlns="http://www.w3.org/2000/svg">
<path d="M17.9942 6.00259C17.8993 5.65042 17.7138 5.32926 17.4561 5.07106C17.1985 4.81286 16.8778 4.62664 16.5258 4.53092C15.2208 4.17259 10 4.16675 10 4.16675C10 4.16675 4.78 4.16092 3.47417 4.50342C3.12244 4.60354 2.80236 4.7924 2.54464 5.05187C2.28693 5.31133 2.10024 5.63269 2.0025 5.98509C1.65834 7.29009 1.655 9.99675 1.655 9.99675C1.655 9.99675 1.65167 12.7168 1.99334 14.0084C2.185 14.7226 2.7475 15.2868 3.4625 15.4793C4.78084 15.8376 9.9875 15.8434 9.9875 15.8434C9.9875 15.8434 15.2083 15.8493 16.5133 15.5076C16.8654 15.412 17.1865 15.2262 17.4447 14.9686C17.703 14.7109 17.8895 14.3903 17.9858 14.0384C18.3308 12.7343 18.3333 10.0284 18.3333 10.0284C18.3333 10.0284 18.35 7.30759 17.9942 6.00259V6.00259ZM8.33 12.5043L8.33417 7.50425L12.6733 10.0084L8.33 12.5043V12.5043Z" fill="white"/>
</svg>
