<svg width="20" height="20" viewBox="0 0 20 20" fill="none" xmlns="http://www.w3.org/2000/svg">
<path d="M16.6667 2.5H3.33333C3.11232 2.5 2.90036 2.5878 2.74408 2.74408C2.5878 2.90036 2.5 3.11232 2.5 3.33333V16.6667C2.5 16.8877 2.5878 17.0996 2.74408 17.2559C2.90036 17.4122 3.11232 17.5 3.33333 17.5H16.6667C16.8877 17.5 17.0996 17.4122 17.2559 17.2559C17.4122 17.0996 17.5 16.8877 17.5 16.6667V3.33333C17.5 3.11232 17.4122 2.90036 17.2559 2.74408C17.0996 2.5878 16.8877 2.5 16.6667 2.5V2.5ZM6.94917 15.2808H4.7225V8.1225H6.94917V15.2808ZM5.83583 7.145C5.4937 7.145 5.16559 7.00909 4.92367 6.76717C4.68174 6.52525 4.54583 6.19713 4.54583 5.855C4.54583 5.51287 4.68174 5.18475 4.92367 4.94283C5.16559 4.70091 5.4937 4.565 5.83583 4.565C6.17796 4.565 6.50608 4.70091 6.748 4.94283C6.98992 5.18475 7.12583 5.51287 7.12583 5.855C7.12583 6.19713 6.98992 6.52525 6.748 6.76717C6.50608 7.00909 6.17796 7.145 5.83583 7.145V7.145ZM15.2817 15.2808H13.0575V11.8C13.0575 10.97 13.0425 9.9025 11.9008 9.9025C10.7425 9.9025 10.5667 10.8075 10.5667 11.7417V15.2817H8.34417V8.12333H10.4775V9.10167H10.5083C10.8042 8.53917 11.5308 7.94583 12.6117 7.94583C14.865 7.94583 15.2808 9.4275 15.2808 11.3558V15.2808H15.2817Z" fill="white"/>
</svg>
