<svg width="20" height="20" viewBox="0 0 20 20" fill="none" xmlns="http://www.w3.org/2000/svg">
<path d="M10.0008 1.66846C5.39917 1.66846 1.66833 5.39929 1.66833 10.001C1.66833 14.1593 4.715 17.606 8.69917 18.2335V12.4101H6.5825V10.001H8.69917V8.16512C8.69917 6.07512 9.94334 4.92262 11.8458 4.92262C12.7575 4.92262 13.7125 5.08512 13.7125 5.08512V7.13429H12.6592C11.6258 7.13429 11.3025 7.77762 11.3025 8.43679V9.99929H13.6117L13.2425 12.4085H11.3025V18.2318C15.2867 17.6076 18.3333 14.1601 18.3333 10.001C18.3333 5.39929 14.6025 1.66846 10.0008 1.66846V1.66846Z" fill="white"/>
</svg>
