<svg width="20" height="20" viewBox="0 0 20 20" fill="none" xmlns="http://www.w3.org/2000/svg">
<path d="M9.99917 6.14746C8.9772 6.14746 7.99709 6.55344 7.27445 7.27608C6.55181 7.99872 6.14583 8.97883 6.14583 10.0008C6.14583 11.0228 6.55181 12.0029 7.27445 12.7255C7.99709 13.4482 8.9772 13.8541 9.99917 13.8541C11.0211 13.8541 12.0012 13.4482 12.7239 12.7255C13.4465 12.0029 13.8525 11.0228 13.8525 10.0008C13.8525 8.97883 13.4465 7.99872 12.7239 7.27608C12.0012 6.55344 11.0211 6.14746 9.99917 6.14746V6.14746ZM9.99917 12.5033C9.33524 12.5033 8.69851 12.2396 8.22904 11.7701C7.75958 11.3006 7.49583 10.6639 7.49583 9.99996C7.49583 9.33604 7.75958 8.6993 8.22904 8.22984C8.69851 7.76037 9.33524 7.49663 9.99917 7.49663C10.6631 7.49663 11.2998 7.76037 11.7693 8.22984C12.2388 8.6993 12.5025 9.33604 12.5025 9.99996C12.5025 10.6639 12.2388 11.3006 11.7693 11.7701C11.2998 12.2396 10.6631 12.5033 9.99917 12.5033V12.5033Z" fill="white"/>
<path d="M14.005 6.90409C14.5011 6.90409 14.9033 6.50189 14.9033 6.00575C14.9033 5.50962 14.5011 5.10742 14.005 5.10742C13.5089 5.10742 13.1067 5.50962 13.1067 6.00575C13.1067 6.50189 13.5089 6.90409 14.005 6.90409Z" fill="white"/>
<path d="M17.1108 5.09248C16.9179 4.5943 16.6231 4.14189 16.2453 3.7642C15.8674 3.38651 15.4149 3.09188 14.9167 2.89915C14.3336 2.68028 13.7176 2.56193 13.095 2.54915C12.2925 2.51415 12.0383 2.50415 10.0033 2.50415C7.96833 2.50415 7.70749 2.50415 6.91166 2.54915C6.28948 2.56128 5.67396 2.67965 5.09166 2.89915C4.59327 3.09165 4.14063 3.38621 3.76277 3.76392C3.38491 4.14164 3.09018 4.59417 2.89749 5.09248C2.67858 5.67549 2.5605 6.29151 2.54833 6.91415C2.51249 7.71582 2.50166 7.96998 2.50166 10.0058C2.50166 12.0408 2.50166 12.3 2.54833 13.0975C2.56083 13.7208 2.67833 14.3358 2.89749 14.92C3.09072 15.4181 3.38574 15.8705 3.76369 16.2481C4.14164 16.6258 4.59421 16.9205 5.09249 17.1133C5.67369 17.341 6.28947 17.4678 6.91333 17.4883C7.71583 17.5233 7.96999 17.5342 10.005 17.5342C12.04 17.5342 12.3008 17.5342 13.0967 17.4883C13.7192 17.4757 14.3352 17.3576 14.9183 17.1392C15.4165 16.946 15.8688 16.6511 16.2466 16.2733C16.6244 15.8955 16.9193 15.4431 17.1125 14.945C17.3317 14.3617 17.4492 13.7467 17.4617 13.1233C17.4975 12.3217 17.5083 12.0675 17.5083 10.0317C17.5083 7.99582 17.5083 7.73748 17.4617 6.93998C17.452 6.30854 17.3333 5.68352 17.1108 5.09248V5.09248ZM16.0958 13.0358C16.0905 13.5161 16.0028 13.9918 15.8367 14.4425C15.7115 14.7665 15.5199 15.0608 15.2742 15.3064C15.0285 15.5519 14.7341 15.7434 14.41 15.8683C13.9643 16.0337 13.4936 16.1214 13.0183 16.1275C12.2267 16.1642 12.0033 16.1733 9.97333 16.1733C7.94166 16.1733 7.73416 16.1733 6.92749 16.1275C6.45243 16.1217 5.98193 16.034 5.53666 15.8683C5.2114 15.7441 4.91583 15.5531 4.66907 15.3075C4.42231 15.0618 4.22986 14.7672 4.10416 14.4425C3.94036 13.9967 3.85275 13.5265 3.84499 13.0517C3.80916 12.26 3.80083 12.0367 3.80083 10.0067C3.80083 7.97582 3.80083 7.76832 3.84499 6.96082C3.85038 6.48084 3.93804 6.00533 4.10416 5.55498C4.35833 4.89748 4.87916 4.37998 5.53666 4.12832C5.98215 3.96343 6.45251 3.87579 6.92749 3.86915C7.71999 3.83332 7.94249 3.82332 9.97333 3.82332C12.0042 3.82332 12.2125 3.82332 13.0183 3.86915C13.4937 3.87487 13.9645 3.96254 14.41 4.12832C14.7341 4.25354 15.0284 4.44515 15.2741 4.69084C15.5198 4.93653 15.7114 5.23088 15.8367 5.55498C16.0005 6.00078 16.0881 6.47095 16.0958 6.94582C16.1317 7.73832 16.1408 7.96082 16.1408 9.99165C16.1408 12.0217 16.1408 12.24 16.105 13.0367H16.0958V13.0358Z" fill="white"/>
</svg>
