<?xml version="1.0" encoding="utf-8"?><!-- Uploaded to: SVG Repo, www.svgrepo.com, Generator: SVG Repo Mixer Tools -->
<svg width="800px" height="800px" viewBox="0 0 24 24" fill="none" xmlns="http://www.w3.org/2000/svg">
<path d="M13.8 10.2H13.806M10.2004 10.1999H10.2064M9.59961 13.1997C9.59961 13.1997 10.4996 14.3997 11.9996 14.3997C13.4996 14.3997 14.3996 13.1997 14.3996 13.1997M17 3H19C20.1046 3 21 3.89543 21 5V7M21 17V19C21 20.1046 20.1046 21 19 21H17M7 21H5C3.89543 21 3 20.1046 3 19V17M3 7V5C3 3.89543 3.89543 3 5 3H7M14.1 10.2C14.1 10.3657 13.9657 10.5 13.8 10.5C13.6343 10.5 13.5 10.3657 13.5 10.2C13.5 10.0343 13.6343 9.9 13.8 9.9C13.9657 9.9 14.1 10.0343 14.1 10.2ZM10.5004 10.1999C10.5004 10.3656 10.3661 10.4999 10.2004 10.4999C10.0347 10.4999 9.90039 10.3656 9.90039 10.1999C9.90039 10.0342 10.0347 9.8999 10.2004 9.8999C10.3661 9.8999 10.5004 10.0342 10.5004 10.1999ZM18 12C18 15.3137 15.3137 18 12 18C8.68629 18 6 15.3137 6 12C6 8.68629 8.68629 6 12 6C15.3137 6 18 8.68629 18 12Z" stroke="#000000" stroke-width="2" stroke-linecap="round" stroke-linejoin="round"/>
</svg>