<svg width="20" height="20" viewBox="0 0 20 20" fill="none" xmlns="http://www.w3.org/2000/svg">
<path d="M16.6667 2.5H3.33333C3.11232 2.5 2.90036 2.5878 2.74408 2.74408C2.5878 2.90036 2.5 3.11232 2.5 3.33333V16.6667C2.5 16.8877 2.5878 17.0996 2.74408 17.2559C2.90036 17.4122 3.11232 17.5 3.33333 17.5H16.6667C16.8877 17.5 17.0996 17.4122 17.2559 17.2559C17.4122 17.0996 17.5 16.8877 17.5 16.6667V3.33333C17.5 3.11232 17.4122 2.90036 17.2559 2.74408C17.0996 2.5878 16.8877 2.5 16.6667 2.5V2.5ZM14.9617 6.05417L14.1567 6.825C14.1227 6.85093 14.0964 6.88571 14.0809 6.92554C14.0653 6.96537 14.0609 7.00871 14.0683 7.05083V12.7183C14.0609 12.7605 14.0653 12.8038 14.0809 12.8436C14.0964 12.8835 14.1227 12.9182 14.1567 12.9442L14.9417 13.7158V13.8858H10.9908V13.7158L11.805 12.9258C11.8858 12.8458 11.8858 12.8217 11.8858 12.7V8.11833L9.6225 13.865H9.31583L6.68167 8.11833V11.97C6.67126 12.05 6.67905 12.1314 6.70444 12.208C6.72984 12.2846 6.77219 12.3545 6.82833 12.4125L7.8875 13.6967V13.8658H4.88417V13.6967L5.94333 12.4125C5.99908 12.3545 6.04048 12.2843 6.06421 12.2075C6.08795 12.1306 6.09335 12.0493 6.08 11.97V7.51667C6.08623 7.45571 6.07801 7.39414 6.056 7.33695C6.034 7.27976 5.99882 7.22856 5.95333 7.1875L5.01167 6.05417V5.885H7.93333L10.1917 10.8375L12.1767 5.885H14.9625V6.05417H14.9617Z" fill="white"/>
</svg>
